<svg xmlns="http://www.w3.org/2000/svg" viewBox="0 0 512 512">
  <defs>
    <radialGradient id="bg" cx="50%" cy="40%" r="60%">
      <stop offset="0%" stop-color="#1e1e32"/>
      <stop offset="100%" stop-color="#0a0a14"/>
    </radialGradient>
    <radialGradient id="thrustOuter" cx="50%" cy="0%" r="100%">
      <stop offset="0%" stop-color="#ff6600" stop-opacity="0.9"/>
      <stop offset="100%" stop-color="#ff6600" stop-opacity="0"/>
    </radialGradient>
    <radialGradient id="thrustInner" cx="50%" cy="0%" r="100%">
      <stop offset="0%" stop-color="#ffe066" stop-opacity="1"/>
      <stop offset="100%" stop-color="#ffe066" stop-opacity="0"/>
    </radialGradient>
    <filter id="glow" x="-50%" y="-50%" width="200%" height="200%">
      <feGaussianBlur stdDeviation="6" result="blur"/>
      <feMerge><feMergeNode in="blur"/><feMergeNode in="SourceGraphic"/></feMerge>
    </filter>
    <filter id="softglow" x="-100%" y="-100%" width="300%" height="300%">
      <feGaussianBlur stdDeviation="18"/>
    </filter>
  </defs>

  <!-- Background -->
  <rect width="512" height="512" fill="url(#bg)"/>

  <!-- Cave wall suggestions at corners -->
  <polygon points="0,0 180,0 0,220" fill="#0c0c18" opacity="0.9"/>
  <polygon points="512,0 332,0 512,220" fill="#0c0c18" opacity="0.9"/>
  <polygon points="0,512 200,512 0,330" fill="#0c0c18" opacity="0.9"/>
  <polygon points="512,512 312,512 512,330" fill="#0c0c18" opacity="0.9"/>

  <!-- Rock texture hints -->
  <polygon points="0,0 90,0 0,80" fill="#111120" opacity="0.7"/>
  <polygon points="512,0 422,0 512,80" fill="#111120" opacity="0.7"/>

  <!-- Thrust glow (soft, behind ship) -->
  <ellipse cx="256.0" cy="417.7" rx="65" ry="100" fill="#ff5500" opacity="0.35" filter="url(#softglow)"/>
  <ellipse cx="256.0" cy="402.7" rx="34" ry="70" fill="#ffaa00" opacity="0.45" filter="url(#softglow)"/>

  <!-- Thrust flame -->
    <polygon points="256.0,472.8 213.2,372.0 298.8,372.0" fill="url(#thrustOuter)"/>
    <polygon points="256.0,431.5 234.6,372.0 277.4,372.0" fill="url(#thrustInner)"/>

  <!-- Ship hull: faceted mesh extracted from the original Flash ship (see src/ship_mesh.rs) -->
  <g filter="url(#glow)">
    <polygon points="256.0,96.9 249.4,96.9 241.9,100.5" fill="rgb(247,59,53)"/>
    <polygon points="256.0,96.9 241.9,100.5 230.8,112.2" fill="rgb(246,59,53)"/>
    <polygon points="256.0,96.9 230.8,112.2 221.8,127.8" fill="rgb(244,58,52)"/>
    <polygon points="256.0,96.9 221.8,127.8 213.1,152.4" fill="rgb(240,57,52)"/>
    <polygon points="256.9,96.0 256.0,96.9 213.1,152.4" fill="rgb(243,58,52)"/>
    <polygon points="256.9,96.0 213.1,152.4 205.6,183.6" fill="rgb(236,56,51)"/>
    <polygon points="256.9,96.0 205.6,183.6 202.6,212.4" fill="rgb(185,191,207)"/>
    <polygon points="256.9,96.0 202.6,212.4 201.7,262.2" fill="rgb(179,186,201)"/>
    <polygon points="256.9,96.0 201.7,262.2 204.7,289.8" fill="rgb(174,180,195)"/>
    <polygon points="199.6,292.8 193.6,291.9 184.9,298.5" fill="rgb(158,164,177)"/>
    <polygon points="199.6,292.8 184.9,298.5 178.0,312.0" fill="rgb(157,163,176)"/>
    <polygon points="204.7,289.8 199.6,292.8 178.0,312.0" fill="rgb(158,163,176)"/>
    <polygon points="204.7,289.8 178.0,312.0 175.0,326.1" fill="rgb(155,161,174)"/>
    <polygon points="204.7,289.8 175.0,326.1 175.0,352.2" fill="rgb(153,158,171)"/>
    <polygon points="204.7,289.8 175.0,352.2 181.0,371.4" fill="rgb(150,155,168)"/>
    <polygon points="204.7,289.8 181.0,371.4 181.0,381.0" fill="rgb(148,153,165)"/>
    <polygon points="256.9,96.0 204.7,289.8 181.0,381.0" fill="rgb(166,172,186)"/>
    <polygon points="181.0,381.0 210.1,381.0 210.1,372.9" fill="rgb(142,147,159)"/>
    <polygon points="256.9,96.0 181.0,381.0 210.1,372.9" fill="rgb(161,166,180)"/>
    <polygon points="256.9,96.0 210.1,372.9 221.8,354.3" fill="rgb(162,168,182)"/>
    <polygon points="256.9,96.0 221.8,354.3 231.4,370.5" fill="rgb(163,168,182)"/>
    <polygon points="256.9,96.0 231.4,370.5 231.4,381.0" fill="rgb(161,167,180)"/>
    <polygon points="256.9,96.0 231.4,381.0 280.6,381.0" fill="rgb(160,166,179)"/>
    <polygon points="256.9,96.0 280.6,381.0 280.6,372.9" fill="rgb(161,166,180)"/>
    <polygon points="256.9,96.0 280.6,372.9 292.3,355.8" fill="rgb(162,168,182)"/>
    <polygon points="256.9,96.0 292.3,355.8 301.3,372.9" fill="rgb(162,168,182)"/>
    <polygon points="301.3,372.9 301.3,381.0 330.1,381.0" fill="rgb(142,147,159)"/>
    <polygon points="256.9,96.0 301.3,372.9 330.1,381.0" fill="rgb(161,166,180)"/>
    <polygon points="330.1,381.0 337.0,347.7 336.1,324.6" fill="rgb(147,152,165)"/>
    <polygon points="330.1,381.0 336.1,324.6 327.1,298.5" fill="rgb(150,156,168)"/>
    <polygon points="330.1,381.0 327.1,298.5 318.4,291.9" fill="rgb(153,158,171)"/>
    <polygon points="330.1,381.0 318.4,291.9 312.4,292.8" fill="rgb(153,158,171)"/>
    <polygon points="330.1,381.0 312.4,292.8 308.8,289.8" fill="rgb(153,159,171)"/>
    <polygon points="256.9,96.0 330.1,381.0 308.8,289.8" fill="rgb(166,172,186)"/>
    <polygon points="256.9,96.0 308.8,289.8 311.5,253.5" fill="rgb(175,181,196)"/>
    <polygon points="256.9,96.0 311.5,253.5 310.9,216.9" fill="rgb(180,186,201)"/>
    <polygon points="256.9,96.0 310.9,216.9 307.3,183.6" fill="rgb(184,191,206)"/>
    <polygon points="256.9,96.0 307.3,183.6 300.4,152.4" fill="rgb(236,56,51)"/>
    <polygon points="256.9,96.0 300.4,152.4 291.7,127.8" fill="rgb(240,57,52)"/>
    <polygon points="256.9,96.0 291.7,127.8 282.7,112.2" fill="rgb(244,58,52)"/>
    <polygon points="282.7,112.2 271.0,100.5 256.9,96.0" fill="rgb(246,59,53)"/>
  </g>

  <!-- Ship details: window, leg-pods, engine cup, gold + blue accents -->
    <polygon points="312.7,292.8 297.7,366.0 299.8,372.0" fill="rgb(200,48,43)"/>
    <polygon points="312.7,292.8 299.8,372.0 331.3,372.0" fill="rgb(200,48,43)"/>
    <polygon points="312.7,292.8 331.3,372.0 333.1,367.5" fill="rgb(200,48,43)"/>
    <polygon points="312.7,292.8 333.1,367.5 334.6,362.4" fill="rgb(200,48,43)"/>
    <polygon points="312.7,292.8 334.6,362.4 335.8,357.3" fill="rgb(200,48,43)"/>
    <polygon points="312.7,292.8 335.8,357.3 336.4,351.6" fill="rgb(200,48,43)"/>
    <polygon points="312.7,292.8 336.4,351.6 337.0,345.9" fill="rgb(200,48,43)"/>
    <polygon points="312.7,292.8 337.0,345.9 337.3,339.6" fill="rgb(200,48,43)"/>
    <polygon points="312.7,292.8 337.3,339.6 337.0,333.3" fill="rgb(200,48,43)"/>
    <polygon points="312.7,292.8 337.0,333.3 336.4,327.3" fill="rgb(200,48,43)"/>
    <polygon points="312.7,292.8 336.4,327.3 335.5,321.3" fill="rgb(200,48,43)"/>
    <polygon points="312.7,292.8 335.5,321.3 334.3,315.9" fill="rgb(200,48,43)"/>
    <polygon points="312.7,292.8 334.3,315.9 332.8,310.8" fill="rgb(200,48,43)"/>
    <polygon points="312.7,292.8 332.8,310.8 330.7,306.0" fill="rgb(200,48,43)"/>
    <polygon points="312.7,292.8 330.7,306.0 328.6,301.8" fill="rgb(200,48,43)"/>
    <polygon points="312.7,292.8 328.6,301.8 326.2,298.5" fill="rgb(200,48,43)"/>
    <polygon points="312.7,292.8 326.2,298.5 323.8,295.8" fill="rgb(200,48,43)"/>
    <polygon points="312.7,292.8 323.8,295.8 321.1,293.7" fill="rgb(200,48,43)"/>
    <polygon points="312.7,292.8 321.1,293.7 318.4,292.5" fill="rgb(200,48,43)"/>
    <polygon points="318.4,292.5 315.4,292.2 312.7,292.8" fill="rgb(200,48,43)"/>
    <polygon points="214.6,366.0 199.3,292.8 196.6,292.2" fill="rgb(200,48,43)"/>
    <polygon points="214.6,366.0 196.6,292.2 193.6,292.5" fill="rgb(200,48,43)"/>
    <polygon points="214.6,366.0 193.6,292.5 190.9,293.7" fill="rgb(200,48,43)"/>
    <polygon points="214.6,366.0 190.9,293.7 188.2,295.8" fill="rgb(200,48,43)"/>
    <polygon points="214.6,366.0 188.2,295.8 185.8,298.5" fill="rgb(200,48,43)"/>
    <polygon points="214.6,366.0 185.8,298.5 183.4,301.8" fill="rgb(200,48,43)"/>
    <polygon points="214.6,366.0 183.4,301.8 181.3,306.0" fill="rgb(200,48,43)"/>
    <polygon points="214.6,366.0 181.3,306.0 179.2,310.8" fill="rgb(200,48,43)"/>
    <polygon points="214.6,366.0 179.2,310.8 177.7,315.9" fill="rgb(200,48,43)"/>
    <polygon points="214.6,366.0 177.7,315.9 176.5,321.3" fill="rgb(200,48,43)"/>
    <polygon points="214.6,366.0 176.5,321.3 175.6,327.3" fill="rgb(200,48,43)"/>
    <polygon points="214.6,366.0 175.6,327.3 175.0,333.3" fill="rgb(200,48,43)"/>
    <polygon points="214.6,366.0 175.0,333.3 174.7,339.6" fill="rgb(200,48,43)"/>
    <polygon points="214.6,366.0 174.7,339.6 175.0,345.9" fill="rgb(200,48,43)"/>
    <polygon points="214.6,366.0 175.0,345.9 175.6,351.6" fill="rgb(200,48,43)"/>
    <polygon points="214.6,366.0 175.6,351.6 176.2,357.3" fill="rgb(200,48,43)"/>
    <polygon points="214.6,366.0 176.2,357.3 177.4,362.4" fill="rgb(200,48,43)"/>
    <polygon points="214.6,366.0 177.4,362.4 178.9,367.5" fill="rgb(200,48,43)"/>
    <polygon points="214.6,366.0 178.9,367.5 181.0,372.0" fill="rgb(200,48,43)"/>
    <polygon points="181.0,372.0 212.2,372.0 214.6,366.0" fill="rgb(200,48,43)"/>
    <polygon points="291.7,354.0 220.9,352.2 222.7,356.1" fill="rgb(120,125,138)"/>
    <polygon points="291.7,354.0 222.7,356.1 224.5,359.7" fill="rgb(120,125,138)"/>
    <polygon points="291.7,354.0 224.5,359.7 226.6,363.3" fill="rgb(120,125,138)"/>
    <polygon points="291.7,354.0 226.6,363.3 228.4,366.3" fill="rgb(120,125,138)"/>
    <polygon points="291.7,354.0 228.4,366.3 230.2,369.3" fill="rgb(120,125,138)"/>
    <polygon points="291.7,354.0 230.2,369.3 232.3,372.0" fill="rgb(120,125,138)"/>
    <polygon points="291.7,354.0 232.3,372.0 281.2,372.0" fill="rgb(120,125,138)"/>
    <polygon points="291.7,354.0 281.2,372.0 283.0,369.6" fill="rgb(120,125,138)"/>
    <polygon points="291.7,354.0 283.0,369.6 284.8,366.9" fill="rgb(120,125,138)"/>
    <polygon points="291.7,354.0 284.8,366.9 286.6,363.9" fill="rgb(120,125,138)"/>
    <polygon points="291.7,354.0 286.6,363.9 288.4,360.9" fill="rgb(120,125,138)"/>
    <polygon points="288.4,360.9 289.9,357.6 291.7,354.0" fill="rgb(120,125,138)"/>
    <polygon points="280.9,381.0 280.9,372.0 231.7,372.0" fill="rgb(198,202,212)"/>
    <polygon points="231.7,372.0 231.7,381.0 280.9,381.0" fill="rgb(198,202,212)"/>
    <polygon points="181.3,372.0 181.3,381.0 210.4,381.0" fill="rgb(180,150,52)"/>
    <polygon points="210.4,381.0 210.4,372.0 181.3,372.0" fill="rgb(180,150,52)"/>
    <polygon points="270.1,165.3 268.0,161.7 265.9,158.7" fill="rgb(58,130,200)"/>
    <polygon points="270.1,165.3 265.9,158.7 263.8,156.6" fill="rgb(58,130,200)"/>
    <polygon points="270.1,165.3 263.8,156.6 261.7,154.8" fill="rgb(58,130,200)"/>
    <polygon points="270.1,165.3 261.7,154.8 259.3,153.9" fill="rgb(58,130,200)"/>
    <polygon points="270.1,165.3 259.3,153.9 256.6,153.6" fill="rgb(58,130,200)"/>
    <polygon points="270.1,165.3 256.6,153.6 254.2,153.9" fill="rgb(58,130,200)"/>
    <polygon points="270.1,165.3 254.2,153.9 251.8,154.8" fill="rgb(58,130,200)"/>
    <polygon points="270.1,165.3 251.8,154.8 249.7,156.6" fill="rgb(58,130,200)"/>
    <polygon points="270.1,165.3 249.7,156.6 247.6,158.7" fill="rgb(58,130,200)"/>
    <polygon points="270.1,165.3 247.6,158.7 245.5,161.7" fill="rgb(58,130,200)"/>
    <polygon points="270.1,165.3 245.5,161.7 243.7,165.3" fill="rgb(58,130,200)"/>
    <polygon points="270.1,165.3 243.7,165.3 241.9,169.5" fill="rgb(58,130,200)"/>
    <polygon points="270.1,165.3 241.9,169.5 240.4,173.7" fill="rgb(58,130,200)"/>
    <polygon points="270.1,165.3 240.4,173.7 239.5,178.5" fill="rgb(58,130,200)"/>
    <polygon points="270.1,165.3 239.5,178.5 238.6,183.3" fill="rgb(58,130,200)"/>
    <polygon points="270.1,165.3 238.6,183.3 238.3,188.7" fill="rgb(58,130,200)"/>
    <polygon points="270.1,165.3 238.3,188.7 238.0,194.1" fill="rgb(58,130,200)"/>
    <polygon points="270.1,165.3 238.0,194.1 238.3,201.0" fill="rgb(58,130,200)"/>
    <polygon points="270.1,165.3 238.3,201.0 275.2,201.0" fill="rgb(58,130,200)"/>
    <polygon points="270.1,165.3 275.2,201.0 275.5,194.1" fill="rgb(58,130,200)"/>
    <polygon points="270.1,165.3 275.5,194.1 275.2,188.7" fill="rgb(58,130,200)"/>
    <polygon points="270.1,165.3 275.2,188.7 274.9,183.3" fill="rgb(58,130,200)"/>
    <polygon points="270.1,165.3 274.9,183.3 274.0,178.5" fill="rgb(58,130,200)"/>
    <polygon points="270.1,165.3 274.0,178.5 273.1,173.7" fill="rgb(58,130,200)"/>
    <polygon points="273.1,173.7 271.6,169.5 270.1,165.3" fill="rgb(58,130,200)"/>
    <polygon points="256.0,157.5 264.4,177.0 247.6,177.0" fill="rgb(125,198,236)"/>
    <polygon points="211.0,199.5 220.6,199.5 214.0,283.5" fill="rgb(48,124,208)"/>
    <polygon points="211.0,199.5 214.0,283.5 204.4,283.5" fill="rgb(48,124,208)"/>
    <polygon points="291.4,199.5 301.0,199.5 307.6,283.5" fill="rgb(48,124,208)"/>
    <polygon points="291.4,199.5 307.6,283.5 298.0,283.5" fill="rgb(48,124,208)"/>
</svg>
